<svg width="159" height="191" viewBox="0 0 159 191" fill="none" xmlns="http://www.w3.org/2000/svg">
<circle cx="79.5" cy="99.5" r="75.5" fill="white" stroke="#009BB3" stroke-width="8"/>
<path d="M76.5 135L73 185L80.5 191L87.5 185L83.5 135L114.5 140.5L105.5 135L139.5 114.5H121L144.5 90L112 104.5L118 90L92 104.5L105.5 43L92 55L79.5 0.5L67.5 55L54.5 43L67.5 106L37.5 90L45 104.5L14 90L37.5 114.5H19.5L56 135L45 140.5L76.5 135Z" fill="#DE3A3D"/>
<line x1="4" y1="99" x2="17" y2="99" stroke="#009BB3" stroke-width="8"/>
<path d="M154 99L141 99" stroke="#009BB3" stroke-width="8"/>
<path d="M133.523 153.523L124.33 144.33" stroke="#009BB3" stroke-width="5"/>
<path d="M25 153L34.1924 143.808" stroke="#009BB3" stroke-width="5"/>
<path d="M132.278 45.7218L123.086 54.9142" stroke="#009BB3" stroke-width="5"/>
<path d="M25.7218 46.2322L34.9142 55.4246" stroke="#009BB3" stroke-width="5"/>
<path d="M150.05 129.025L142 125" stroke="#009BB3" stroke-width="4"/>
<path d="M108.173 169.988L104.729 161.673" stroke="#009BB3" stroke-width="4"/>
<path d="M49.4696 168.988L52.9137 160.673" stroke="#009BB3" stroke-width="4"/>
<path d="M9.01735 127.543L17.3323 124.099" stroke="#009BB3" stroke-width="4"/>
<line x1="141.235" y1="72.5964" x2="149.55" y2="69.1522" stroke="#009BB3" stroke-width="4"/>
<path d="M9.5 70L17.8149 73.4442" stroke="#009BB3" stroke-width="4"/>
<line x1="104.152" y1="37.2346" x2="107.596" y2="28.9197" stroke="#009BB3" stroke-width="4"/>
<path d="M50.0558 29.6851L53.5 38" stroke="#009BB3" stroke-width="4"/>
</svg>
